# xmcd CD database file
#
# Track frame offsets:
#	150
#	20887
#	48644
#	65193
#	96133
#	118073
#	137519
#	160555
#	181135
#	202194
#	227984
#	250021
#	277675
#	293777
#	312314
#
# Disc length: 4429 seconds
#
# Revision: 0
# Processed by: cddbd v1.5.2PL0 Copyright (c) Steve Scherf et al.
# Submitted via: CDex 1.51
#
DISCID=db114b0f
DTITLE=Marc Moulin - Boxof [CD1)
DYEAR=2009
DGENRE=Jazz
TTITLE0=Tohu-bohu part 2005 remix
TTITLE1=Tenor (Long Fall mix)
TTITLE2=Lord, you made me so weak (alternative mix by JP Sluys)
TTITLE3=Hooverphonic "the world is mine (remix by Marc Moulin)
TTITLE4=Me and my ego
TTITLE5=Balek
TTITLE6=Music is my husband
TTITLE7=Easy
TTITLE8=Try not to cry (demo)
TTITLE9=Le bruit de l'ombre
TTITLE10=Aria
TTITLE11=In my room
TTITLE12=Tanga
TTITLE13=Le grand voyage
TTITLE14=Clown triste
EXTD=YEAR: 2009
EXTT0=
EXTT1=
EXTT2=
EXTT3=
EXTT4=
EXTT5=
EXTT6=
EXTT7=
EXTT8=
EXTT9=
EXTT10=
EXTT11=
EXTT12=
EXTT13=
EXTT14=
PLAYORDER=
